<svg width="21" height="15" viewBox="0 0 21 15" fill="none" xmlns="http://www.w3.org/2000/svg">
<path d="M0.752568 13.0001H19.2526C19.6668 13.0001 20.0026 13.3358 20.0026 13.7501C20.0026 14.1298 19.7204 14.4435 19.3543 14.4932L19.2526 14.5001H0.752568C0.338355 14.5001 0.00256824 14.1643 0.00256824 13.7501C0.00256824 13.3704 0.284722 13.0566 0.650798 13.0069L0.752568 13.0001H19.2526H0.752568ZM0.752568 6.50306H19.2526C19.6668 6.50306 20.0026 6.83885 20.0026 7.25306C20.0026 7.63276 19.7204 7.94655 19.3543 7.99622L19.2526 8.00306H0.752568C0.338355 8.00306 0.00256824 7.66728 0.00256824 7.25306C0.00256824 6.87337 0.284722 6.55957 0.650798 6.50991L0.752568 6.50306H19.2526H0.752568ZM0.751709 0.0032959H19.2517C19.6659 0.0032959 20.0017 0.339082 20.0017 0.753296C20.0017 1.13299 19.7196 1.44679 19.3535 1.49645L19.2517 1.5033H0.751709C0.337495 1.5033 0.00170898 1.16751 0.00170898 0.753296C0.00170898 0.3736 0.283863 0.0598047 0.649939 0.0101423L0.751709 0.0032959H19.2517H0.751709Z" fill="black"/>
</svg>
