<svg xmlns="http://www.w3.org/2000/svg" version="1.1" xmlns:xlink="http://www.w3.org/1999/xlink" xmlns:svgjs="http://svgjs.com/svgjs" width="512" height="512" x="0" y="0" viewBox="0 0 64 64" style="enable-background:new 0 0 512 512" xml:space="preserve" class=""><g><path d="M64 21.46A17.12 17.12 0 0 0 34.74 9.34L32 12.08l-2.75-2.75A17.12 17.12 0 0 0 0 21.46a17 17 0 0 0 5 12.09l25.59 25.53a2 2 0 0 0 1.41.59 2 2 0 0 0 1.42-.59l4.38-4.38A13.66 13.66 0 1 0 57 35.46l1.9-1.9a16.91 16.91 0 0 0 5.1-12.1ZM58 46a9.67 9.67 0 1 1-9.67-9.67A9.68 9.68 0 0 1 58 46Zm-9.67-13.67A13.69 13.69 0 0 0 34.67 46a13.45 13.45 0 0 0 1 5.16L32 54.84l-20-20-4.12-4.12a13.12 13.12 0 0 1 9.28-22.39 13 13 0 0 1 9.27 3.83l4.16 4.16a2 2 0 0 0 1.41.59 2 2 0 0 0 1.42-.59l4.14-4.15a13.14 13.14 0 0 1 18.55 0 13.11 13.11 0 0 1 0 18.56l-2.63 2.62a13.55 13.55 0 0 0-5.15-1.02Z" fill="#000000" data-original="#000000" class=""></path><path d="M50.33 44v-4.36a2 2 0 0 0-4 0V44H42a2 2 0 0 0 0 4h4.36v4.36a2 2 0 0 0 4 0V48h4.34a2 2 0 0 0 0-4Z" fill="#000000" data-original="#000000" class=""></path></g></svg>